# xmcd CD database file
# Copyright (C) 1993-1996 Ti Kan
#
# Track frame offsets:
#	150
#	51040
#	112107
#	142652
#	187275
#	214280
#	234685
#	274675
#	303027
#
# Disc length: 4436 seconds
#
# Revision: 1
# Processed by: cddbd v1.4b41PL1 Copyright (c) Steve Scherf et al.
# Submitted via: CDValet v3.01 - Copyright (c) 1997 Greg Leichner
#
DISCID=82115209
DTITLE=Coleman Hawkins - Blues Wail: Coleman Hawkins plays the blues
DYEAR=1900
DGENRE=
TTITLE0=Juicy Fruit
TTITLE1=Blues for tomorrow
TTITLE2=Blues Wail
TTITLE3=Soul blues
TTITLE4=Skronk
TTITLE5=Stealin' the Bean
TTITLE6=Foot Pattin'
TTITLE7=Blues for Ron
TTITLE8=Pedalin'
EXTD=
EXTT0=
EXTT1=
EXTT2=
EXTT3=
EXTT4=
EXTT5=
EXTT6=
EXTT7=
EXTT8=
PLAYORDER=
